# xmcd
#
# Track frame offsets: 
#        150
#        17682
#        39082
#        56876
#        80627
#        100050
#        122465
#        141985
#        171582
#        184277
#        220980
#        242333
#
# Disc length: 3589 seconds
#
# Revision: 2
# Processed by: cddbd v1.5.2PL0 Copyright (c) Steve Scherf et al.
# Submitted via: ExactAudioCopyFreeDBPlugin 1.0
#
DISCID=a40e030c
DTITLE=Calamalka - Shredders Dub
DYEAR=2004
DGENRE=Alt. Rock - DSP - Experimental Rock - Experimental Techno
TTITLE0=Hear The Most
TTITLE1=Tabla Purists
TTITLE2=Chassi
TTITLE3=Auterzonik
TTITLE4=Lighting Rigg
TTITLE5=Ackee
TTITLE6=Bumpea
TTITLE7=Reliable I
TTITLE8=Ol' Ghost
TTITLE9=Gamblor
TTITLE10=Lumins
TTITLE11=Electric Blue
EXTD=
EXTT0=
EXTT1=
EXTT2=
EXTT3=
EXTT4=
EXTT5=
EXTT6=
EXTT7=
EXTT8=
EXTT9=
EXTT10=
EXTT11=
PLAYORDER=
